# xmcd
#
# Track frame offsets:
#	183
#	13360
#	28658
#	41620
#	59470
#	76110
#	93988
#	107573
#	122208
#	135603
#	154618
#	169008
#	180558
#	198358
#	209438
#	224425
#	238280
#	254083
#	266638
#	282288
#
# Disc length: 3918 seconds
# Revision: 0
# Processed by: cddbd v1.5.2PL0 Copyright (c) Steve Scherf et al.
# Submitted via: dBpowerAMP V12.0
#
DISCID=280f4c14
DTITLE=Various Artist - Country Love
DYEAR=1993
DGENRE=Country
TTITLE0=Dolly Parton - I Will Always Love You
TTITLE1=Don Williams - I Recall a Gypsy Woman
TTITLE2=Bobbie Gentry - I'll Never Fall in Love Again
TTITLE3=Lee Greenwood - The Wind Beneath My Wings
TTITLE4=Mary MacGregor - Torn Between Two Lovers
TTITLE5=Waylon Jennings - Jessi Colter - Suspicious Minds
TTITLE6=Willie Nelson - Fire and Rain
TTITLE7=Bellamy Brothers, The - If I Said You Had a Beautiful Body Would You Hold It Against Me
TTITLE8=Tanya Tucker - Glen Campbell - Dream Lover
TTITLE9=Nanci Griffith - From a Distance
TTITLE10=Kenny Rogers - Daytime Friends
TTITLE11=Crystal Gayle - Don't It Make My Brown Eyes Blue
TTITLE12=Bobby Goldsboro - Honey
TTITLE13=Charlie Rich - The Most Beautiful Girl in the World
TTITLE14=Skeeter Davis - True Love Ways
TTITLE15=Glen Campbell - Wichita Lineman
TTITLE16=George Strait - I Cross My Heart
TTITLE17=Jim Reeves - I Love You Because
TTITLE18=The Judds - Why Not Me
TTITLE19=Patsy Cline - Sweet Dreams
EXTD=
EXTT0=
EXTT1=
EXTT2=
EXTT3=
EXTT4=
EXTT5=
EXTT6=
EXTT7=
EXTT8=
EXTT9=
EXTT10=
EXTT11=
EXTT12=
EXTT13=
EXTT14=
EXTT15=
EXTT16=
EXTT17=
EXTT18=
EXTT19=
PLAYORDER=
